HIERARCHY
ROOT Hips
{
	OFFSET 0.000000 0.000000 0.000000
	CHANNELS 6 Xposition Yposition Zposition Zrotation Yrotation Xrotation 
	JOINT LHipJoint
	{
		OFFSET 0.000000 0.000000 0.000000
		CHANNELS 3 Zrotation Yrotation Xrotation
		JOINT LeftUpLeg
		{
			OFFSET 1.363060 -1.794630 0.839290
			CHANNELS 3 Zrotation Yrotation Xrotation
			JOINT LeftLeg
			{
				OFFSET 2.448110 -6.726130 0.000000
				CHANNELS 3 Zrotation Yrotation Xrotation
				JOINT LeftFoot
				{
					OFFSET 2.562200 -7.039590 0.000000
					CHANNELS 3 Zrotation Yrotation Xrotation
					JOINT LeftToeBase
					{
						OFFSET 0.157640 -0.433110 2.322550
						CHANNELS 3 Zrotation Yrotation Xrotation
						End Site
						{
							OFFSET 0.000000 0.000000 0.000000
						}
					}
				}
			}
		}
	}
	JOINT RHipJoint
	{
		OFFSET 0.000000 0.000000 0.000000
		CHANNELS 3 Zrotation Yrotation Xrotation
		JOINT RightUpLeg
		{
			OFFSET -1.305520 -1.794630 0.839290
			CHANNELS 3 Zrotation Yrotation Xrotation
			JOINT RightLeg
			{
				OFFSET -2.542530 -6.985550 0.000000
				CHANNELS 3 Zrotation Yrotation Xrotation
				JOINT RightFoot
				{
					OFFSET -2.568260 -7.056230 0.000000
					CHANNELS 3 Zrotation Yrotation Xrotation
					JOINT RightToeBase
					{
						OFFSET -0.164730 -0.452590 2.363150
						CHANNELS 3 Zrotation Yrotation Xrotation
						End Site
						{
							OFFSET 0.000000 0.000000 0.000000
						}
					}
				}
			}
		}
	}
	JOINT LowerBack
	{
		OFFSET 0.000000 0.000000 0.000000
		CHANNELS 3 Zrotation Yrotation Xrotation
		JOINT Spine
		{
			OFFSET 0.028270 2.035590 -0.193380
			CHANNELS 3 Zrotation Yrotation Xrotation
			JOINT Spine1
			{
				OFFSET 0.056720 2.048850 -0.042750
				CHANNELS 3 Zrotation Yrotation Xrotation
				JOINT Neck
				{
					OFFSET 0.000000 0.000000 0.000000
					CHANNELS 3 Zrotation Yrotation Xrotation
					JOINT Neck1
					{
						OFFSET -0.054170 1.746240 0.172020
						CHANNELS 3 Zrotation Yrotation Xrotation
						JOINT Head
						{
							OFFSET 0.104070 1.761360 -0.123970
							CHANNELS 3 Zrotation Yrotation Xrotation
							End Site
							{
								OFFSET 0.000000 0.000000 0.000000
							}
						}
					}
				}
				JOINT LeftShoulder
				{
					OFFSET 0.000000 0.000000 0.000000
					CHANNELS 3 Zrotation Yrotation Xrotation
					JOINT LeftArm
					{
						OFFSET 3.362410 1.200890 -0.311210
						CHANNELS 3 Zrotation Yrotation Xrotation
						JOINT LeftForeArm
						{
							OFFSET 4.983000 -0.000000 -0.000000
							CHANNELS 3 Zrotation Yrotation Xrotation
							JOINT LeftHand
							{
								OFFSET 3.483560 -0.000000 -0.000000
								CHANNELS 3 Zrotation Yrotation Xrotation
								JOINT LeftFingerBase
								{
									OFFSET 0.000000 0.000000 0.000000
									CHANNELS 3 Zrotation Yrotation Xrotation
									JOINT LeftHandIndex1
									{
										OFFSET 0.715260 -0.000000 -0.000000
										CHANNELS 3 Zrotation Yrotation Xrotation
										End Site
										{
											OFFSET 0.000000 0.000000 0.000000
										}
									}
								}
								JOINT LThumb
								{
									OFFSET 0.000000 0.000000 0.000000
									CHANNELS 3 Zrotation Yrotation Xrotation
									End Site
									{
										OFFSET 0.000000 0.000000 0.000000
									}
								}
							}
						}
					}
				}
				JOINT RightShoulder
				{
					OFFSET 0.000000 0.000000 0.000000
					CHANNELS 3 Zrotation Yrotation Xrotation
					JOINT RightArm
					{
						OFFSET -3.136600 1.374050 -0.404650
						CHANNELS 3 Zrotation Yrotation Xrotation
						JOINT RightForeArm
						{
							OFFSET -5.241900 -0.000000 -0.000000
							CHANNELS 3 Zrotation Yrotation Xrotation
							JOINT RightHand
							{
								OFFSET -3.444170 -0.000000 -0.000000
								CHANNELS 3 Zrotation Yrotation Xrotation
								JOINT RightFingerBase
								{
									OFFSET 0.000000 0.000000 0.000000
									CHANNELS 3 Zrotation Yrotation Xrotation
									JOINT RightHandIndex1
									{
										OFFSET -0.622530 -0.000000 -0.000000
										CHANNELS 3 Zrotation Yrotation Xrotation
										End Site
										{
											OFFSET 0.000000 0.000000 0.000000
										}
									}
								}
								JOINT RThumb
								{
									OFFSET 0.000000 0.000000 0.000000
									CHANNELS 3 Zrotation Yrotation Xrotation
									End Site
									{
										OFFSET 0.000000 0.000000 0.000000
									}
								}
							}
						}
					}
				}
			}
		}
	}
}
MOTION
Frames: 10
Frame Time: 0.008333
8.934752 18.867511 -14.513901 -0.493320 0.001458 7.936172 14.429111 -4.434776 -12.924545 -36.804022 4.625276 16.561278 6.093033 4.173371 9.614345 -1.876504 -16.026139 -35.715093 0.414300 4.131700 11.447500 -22.739279 1.303442 -17.979480 46.767514 -9.889429 24.720719 -6.424297 -1.503907 -0.815771 -2.973455 6.192903 -44.003815 -0.926600 -6.132300 17.168800 11.097553 0.704050 21.331512 -19.760224 -6.066561 -42.845097 4.536145 -0.623720 -0.272652 1.960909 -2.764615 0.174981 -1.150898 -2.620348 25.231411 0.720200 -1.186600 3.452300 -7.750682 -0.240128 1.836506 78.164297 -55.881232 -85.978929 20.674437 -15.437512 -1.168282 0.542942 -2.167983 8.514094 16.063490 -23.170213 -5.597600 -7.125000 0.000000 0.000000 -8.512100 8.373400 7.264600 12.126251 -0.521293 -0.133135 -64.675958 52.349052 -102.041361 -19.819960 16.542177 -0.922648 -5.376076 -2.124488 21.229282 -25.896039 -23.211328 7.601300 7.125000 0.000000 0.000000 6.751200 -50.871600 -0.980500 
8.939220 18.899665 -14.520560 -0.478312 -0.042024 8.461632 14.631092 -4.139245 -12.618260 -37.143391 3.928611 15.342828 6.227953 4.445789 10.513526 -1.886600 -15.775002 -35.539976 0.429000 4.203200 11.649100 -23.079707 1.043253 -17.730470 47.154880 -9.389305 23.840658 -6.549198 -1.618623 -0.422525 -2.851791 6.338060 -43.654295 -1.024300 -6.438400 18.061800 11.363650 0.606119 21.189766 -20.198364 -6.021540 -41.201463 4.700683 -0.579115 -1.070140 1.753489 -2.741666 -0.891471 -0.974987 -2.636168 26.381714 0.759700 -1.172000 3.632000 -7.981259 -0.129329 1.682816 78.514938 -55.785088 -86.207232 20.648764 -15.308642 -1.156977 0.517053 -2.149890 8.810603 15.941389 -23.096477 -5.543500 -7.125000 0.000000 0.000000 -8.576300 8.442800 7.308700 12.515951 -0.629888 -0.368508 -65.504690 52.522840 -102.624196 -19.815237 16.421234 -0.924650 -5.410914 -2.128276 21.365151 -26.108993 -23.342196 7.715500 7.125000 0.000000 0.000000 6.594500 -51.019100 -0.981600 
8.944652 18.933835 -14.530460 -0.448537 -0.115036 9.005981 14.832428 -3.809897 -12.238349 -37.499705 3.159971 13.989699 6.377502 4.742319 11.507771 -1.903495 -15.541874 -35.368032 0.441300 4.262500 11.816400 -23.463843 0.746442 -17.426471 47.567257 -8.827124 22.844901 -6.690937 -1.759407 0.072133 -2.712806 6.525920 -43.299486 -1.112800 -6.701700 18.834600 11.708158 0.520794 20.902706 -20.823638 -5.963354 -39.186965 4.900860 -0.519101 -2.020108 1.565742 -2.713205 -2.003929 -0.716555 -2.668330 27.554589 0.804500 -1.155900 3.808300 -8.199720 -0.006286 1.487520 78.889574 -55.747066 -86.542974 20.662437 -15.208776 -1.143471 0.478024 -2.135861 9.203637 15.775919 -23.063719 -5.485300 -7.125000 0.000000 0.000000 -8.663700 8.480900 7.378400 12.944150 -0.769717 -0.648279 -66.258934 52.720714 -102.974289 -19.823315 16.342335 -0.935290 -5.440795 -2.178636 21.202892 -26.269529 -23.517130 7.819400 7.125000 0.000000 0.000000 6.495100 -51.182900 -0.992800 
8.951486 18.969318 -14.544216 -0.399294 -0.180361 9.620138 15.054957 -3.436113 -11.785928 -37.905094 2.245979 12.440816 6.549358 5.078056 12.648466 -1.926788 -15.318748 -35.202048 0.450200 4.304600 11.935200 -23.897921 0.400356 -17.082423 48.007985 -8.199535 21.705825 -6.851209 -1.924554 0.651356 -2.565119 6.716220 -42.929411 -1.194600 -6.935300 19.523800 12.098263 0.453806 20.517853 -21.587399 -5.906065 -37.069547 5.122050 -0.457225 -2.988920 1.441518 -2.685381 -2.901442 -0.415074 -2.714853 28.482437 0.846900 -1.142400 3.934900 -8.360617 0.101883 1.271957 79.191073 -55.779788 -86.891520 20.712385 -15.154277 -1.129243 0.429761 -2.126686 9.607885 15.575686 -23.072972 -5.425700 -7.125000 0.000000 0.000000 -8.769400 8.487100 7.469500 13.339381 -0.918026 -0.932961 -66.785963 52.914099 -103.013319 -19.847441 16.336902 -0.952921 -5.462705 -2.273091 20.764995 -26.353440 -23.746495 7.908800 7.125000 0.000000 0.000000 6.478900 -51.371700 -1.020400 
8.959547 19.005766 -14.562177 -0.312970 -0.216682 10.313231 15.289422 -3.017636 -11.250568 -38.360777 1.147166 10.675962 6.745860 5.458838 13.954516 -1.958839 -15.101022 -35.027923 0.459500 4.348300 12.058700 -24.388551 0.003304 -16.705572 48.472239 -7.499885 20.429496 -7.030749 -2.112637 1.314585 -2.412120 6.906159 -42.557448 -1.280900 -7.172300 20.226800 12.554638 0.392201 20.060492 -22.554317 -5.885070 -34.912871 5.403506 -0.408027 -3.924673 1.451577 -2.662726 -3.519096 -0.203946 -2.738364 28.982215 0.870900 -1.126200 3.990700 -8.446893 0.184261 1.039420 79.390748 -55.862450 -87.194055 20.793628 -15.150937 -1.119638 0.388557 -2.120604 9.942645 15.420477 -23.111029 -5.387500 -7.125000 0.000000 0.000000 -8.850600 8.462300 7.544800 13.678152 -1.061222 -1.215204 -67.081794 53.076904 -102.808782 -19.884450 16.392716 -0.973883 -5.478702 -2.394260 20.157686 -26.391079 -24.015459 7.991800 7.125000 0.000000 0.000000 6.516600 -51.583700 -1.060400 
8.968571 19.043702 -14.584693 -0.174515 -0.217645 11.071010 15.514654 -2.561636 -10.623974 -38.842648 -0.143459 8.702287 6.964397 5.884089 15.422947 -2.009002 -14.902875 -34.823696 0.477600 4.432100 12.295600 -24.935164 -0.435755 -16.302538 48.956080 -6.713683 19.048717 -7.227147 -2.321560 2.062364 -2.265611 7.083513 -42.220414 -1.380600 -7.435000 21.010800 13.101614 0.322194 19.569383 -23.806071 -5.923151 -32.728758 5.775989 -0.376164 -4.827083 1.603973 -2.658569 -3.856402 -0.064921 -2.760736 29.057812 0.876800 -1.118900 3.978400 -8.435804 0.231173 0.796257 79.508457 -55.968947 -87.409542 20.884209 -15.169972 -1.119567 0.380960 -2.116914 10.126381 15.432768 -23.148666 -5.403100 -7.125000 0.000000 0.000000 -8.843500 8.417900 7.546500 13.958737 -1.200278 -1.489729 -67.140192 53.190311 -102.387541 -19.929151 16.490577 -0.994725 -5.493545 -2.529427 19.442988 -26.426434 -24.311766 8.081200 7.125000 0.000000 0.000000 6.569200 -51.819500 -1.107100 
8.977770 19.083391 -14.611678 -0.001713 -0.192846 11.852981 15.719177 -2.075429 -9.901608 -39.296938 -1.587066 6.558466 7.197150 6.347752 17.032648 -2.084375 -14.738682 -34.568401 0.509200 4.574100 12.697800 -25.508899 -0.900529 -15.866613 49.449400 -5.844690 17.591957 -7.435848 -2.553238 2.908195 -2.129322 7.248228 -41.935835 -1.488400 -7.707600 21.829300 13.699025 0.236270 19.057664 -25.232589 -5.960491 -30.432710 6.212010 -0.350905 -5.758551 1.863406 -2.680824 -4.001967 -0.037102 -2.778036 28.773429 0.864500 -1.122600 3.910000 -8.370666 0.263702 0.529555 79.584462 -56.077697 -87.544229 20.972227 -15.181672 -1.125324 0.397164 -2.113809 10.226847 15.558069 -23.170430 -5.451200 -7.125000 0.000000 0.000000 -8.777300 8.374000 7.496300 14.194855 -1.336115 -1.771025 -67.069519 53.280049 -101.869275 -19.978917 16.605000 -1.013941 -5.510735 -2.664786 18.725251 -26.490227 -24.626291 8.187100 7.125000 0.000000 0.000000 6.605400 -52.079700 -1.155500 
8.986444 19.125008 -14.642255 0.179856 -0.174999 12.577751 15.878662 -1.568970 -9.066844 -39.659238 -3.112672 4.316658 7.433679 6.841252 18.755911 -2.178130 -14.600690 -34.260555 0.551600 4.757800 13.219000 -26.074522 -1.367971 -15.367278 49.933279 -4.907177 16.094388 -7.651676 -2.810657 3.876899 -1.994532 7.426393 -41.697359 -1.594900 -7.965600 22.609800 14.322892 0.137232 18.450087 -26.750165 -5.889848 -27.678215 6.681904 -0.307618 -6.889614 2.177452 -2.725699 -4.164486 -0.119863 -2.786995 28.296861 0.838500 -1.133900 3.815300 -8.317594 0.316891 0.202404 79.700257 -56.152501 -87.607210 21.048546 -15.153833 -1.130103 0.419569 -2.111926 10.340065 15.697636 -23.188656 -5.501600 -7.125000 0.000000 0.000000 -8.706400 8.331800 7.441700 14.432410 -1.482093 -2.108536 -67.034636 53.394138 -101.428946 -20.040837 16.717866 -1.034491 -5.526008 -2.784598 18.126736 -26.565418 -24.913330 8.291000 7.125000 0.000000 0.000000 6.620600 -52.319200 -1.197100 
8.994592 19.167938 -14.675549 0.343419 -0.198348 13.161959 15.972219 -1.048410 -8.093887 -39.880932 -4.658281 2.040085 7.666996 7.357020 20.573727 -2.278114 -14.479528 -33.920575 0.596000 4.942500 13.744600 -26.601065 -1.817078 -14.760039 50.391909 -3.913336 14.581414 -7.871254 -3.095537 4.985633 -1.855408 7.626205 -41.481228 -1.686800 -8.180800 23.264600 14.960003 0.042269 17.610107 -28.296752 -5.571021 -24.010629 7.158937 -0.216805 -8.420351 2.511953 -2.783617 -4.575360 -0.320994 -2.778677 27.794935 0.801100 -1.146600 3.726800 -8.325240 0.423661 -0.229150 79.918098 -56.171204 -87.646209 21.131093 -15.090913 -1.130867 0.427942 -2.106199 10.543759 15.732613 -23.201235 -5.515400 -7.125000 0.000000 0.000000 -8.694700 8.304400 7.436200 14.704796 -1.652857 -2.559576 -67.160572 53.551597 -101.130974 -20.120793 16.813582 -1.061256 -5.532422 -2.886604 17.657096 -26.616792 -25.122780 8.363200 7.125000 0.000000 0.000000 6.625200 -52.480600 -1.224200 
9.001864 19.211395 -14.711120 0.453663 -0.309781 13.544986 16.002710 -0.508299 -6.953113 -39.938587 -6.179714 -0.238322 7.894135 7.888191 22.474043 -2.364016 -14.353471 -33.587716 0.629500 5.076800 14.127600 -27.060037 -2.235607 -13.984111 50.823470 -2.834648 13.036970 -8.100291 -3.412675 6.267914 -1.701410 7.864250 -41.259842 -1.760500 -8.348200 23.776900 15.547012 -0.004255 16.366203 -29.704385 -4.815734 -18.974744 7.583427 -0.042505 -10.528579 2.819569 -2.840250 -5.409345 -0.642672 -2.744190 27.326727 0.755000 -1.155200 3.663500 -8.423664 0.605724 -0.809001 80.247177 -56.125642 -87.757365 21.264398 -15.032366 -1.125980 0.400291 -2.092617 10.946486 15.561608 -23.208921 -5.460900 -7.125000 0.000000 0.000000 -8.794400 8.301500 7.524100 15.006240 -1.846642 -3.177411 -67.587718 53.745011 -101.143542 -20.226195 16.858382 -1.094885 -5.527201 -2.960852 17.417776 -26.610298 -25.225887 8.381900 7.125000 0.000000 0.000000 6.634500 -52.528100 -1.233600 
